# xmcd
#
# Track frame offsets:
#	150
#	17856
#	30483
#	47063
#	62682
#	78201
#	92557
#	117544
#	135620
#	154404
#	169408
#	183412
#	201355
#	214960
#	234192
#	249224
#
# Disc length: 3498
#
# Revision: 1
# Processed by: cddbd v1.5.1PL0 Copyright (c) Steve Scherf et al.
# Submitted via: audiograbber 1.80
# Normalized: r0:TDELIM( - )
#
DISCID=d80da810
DTITLE=Schmusenacht - Vol.2
DYEAR=1900
DGENRE=
TTITLE0=Bobby McFerrin - Don't worry be happy
TTITLE1=Aretha Franklin - Chain of fools
TTITLE2=Lee Hazlewood and Nany Sinatra - Summerwine
TTITLE3=Tommy James and Shondells - Crimson and Clover
TTITLE4=Barry White - You're the first, the last my everthing
TTITLE5=Kinks - Death of a clown
TTITLE6=Toto - Rosanna
TTITLE7=Lobo - I'd love you to want me
TTITLE8=Kenny Rogers and Dolly Parton - Island in the sun
TTITLE9=The Mamas and Papas - Manday Monday
TTITLE10=Sonny and Cher - I got you babe
TTITLE11=Cat Stevens - Peace train
TTITLE12=Frankie Valli and Four Seasons - Rag Doll
TTITLE13=Dionne Warwick - Heartbreaker
TTITLE14=America - Sister Golden Hair
TTITLE15=Beach Boys - Sloop John B.
EXTD=
EXTT0=
EXTT1=
EXTT2=
EXTT3=
EXTT4=
EXTT5=
EXTT6=
EXTT7=
EXTT8=
EXTT9=
EXTT10=
EXTT11=
EXTT12=
EXTT13=
EXTT14=
EXTT15=
PLAYORDER=
